
<svg version="1.0" xmlns="http://www.w3.org/2000/svg"
 width="155.000000pt" height="239.000000pt" viewBox="0 0 155.000000 239.000000"
 preserveAspectRatio="xMidYMid meet">
<g transform="translate(0.000000,239.000000) scale(0.100000,-0.100000)"
fill="#8047F8" stroke="none">
<path d="M254 2311 c-27 -12 -32 -25 -40 -108 -8 -74 -31 -109 -65 -98 -35 11
-78 -5 -94 -35 -15 -30 -20 -132 -9 -189 l7 -31 727 0 727 0 5 71 c10 130 -17
179 -96 179 -23 0 -47 5 -54 12 -7 7 -12 39 -12 74 0 33 -5 75 -11 93 l-11 31
-498 0 c-274 0 -510 2 -526 5 -16 2 -38 0 -50 -4z"/>
<path d="M165 1733 c3 -21 25 -326 50 -678 54 -765 50 -723 78 -727 20 -3 23
-12 37 -135 9 -73 18 -135 22 -138 3 -4 21 1 40 10 186 95 306 313 326 592 l7
102 -45 3 c-44 3 -53 11 -74 63 -5 13 -84 -63 -92 -88 -10 -31 -25 -5 -31 54
-7 67 21 140 73 190 24 23 34 42 34 63 1 109 74 294 150 377 l40 44 35 -40
c73 -83 145 -264 145 -365 0 -40 5 -51 40 -85 53 -52 74 -108 68 -184 -4 -61
-16 -89 -26 -61 -3 8 -25 35 -50 60 l-45 45 -12 -35 c-11 -33 -15 -35 -58 -38
l-47 -3 0 -53 c0 -128 51 -320 113 -426 64 -109 243 -259 265 -222 5 6 14 66
21 131 8 66 16 124 20 129 3 5 15 11 26 13 19 4 22 34 66 649 26 355 50 678
53 718 l6 72 -620 0 -620 0 5 -37z"/>
</g>
</svg>
